<mxfile host="app.diagrams.net" modified="2024-06-23T22:29:06.560Z" agent="Mozilla/5.0 (Windows NT 10.0; Win64; x64) AppleWebKit/537.36 (KHTML, like Gecko) Chrome/126.0.0.0 Safari/537.36" etag="PauCjz7i3DGtf94MJB7y" version="24.6.2" type="google">
  <diagram name="Page-1" id="xpqKK-JmUNRoiQJIzbKH">
    <mxGraphModel grid="1" page="1" gridSize="10" guides="1" tooltips="1" connect="1" arrows="1" fold="1" pageScale="1" pageWidth="850" pageHeight="1100" math="0" shadow="0">
      <root>
        <mxCell id="0" />
        <mxCell id="1" parent="0" />
        <mxCell id="nn79CrIw1unvB5zp2tXt-1" value="&lt;span style=&quot;font-size: 20px;&quot;&gt;&lt;b&gt;&lt;i&gt;ejercicio_19b_MasPersonajes&lt;/i&gt;&lt;/b&gt;&lt;/span&gt;" style="text;html=1;align=center;verticalAlign=middle;resizable=0;points=[];autosize=1;strokeColor=none;fillColor=none;" vertex="1" parent="1">
          <mxGeometry x="1045" y="-3360" width="310" height="40" as="geometry" />
        </mxCell>
        <mxCell id="nn79CrIw1unvB5zp2tXt-2" style="edgeStyle=orthogonalEdgeStyle;rounded=0;orthogonalLoop=1;jettySize=auto;html=1;" edge="1" parent="1" source="nn79CrIw1unvB5zp2tXt-3" target="nn79CrIw1unvB5zp2tXt-28">
          <mxGeometry relative="1" as="geometry">
            <Array as="points">
              <mxPoint x="-1220" y="-3680" />
              <mxPoint x="-300" y="-3680" />
            </Array>
          </mxGeometry>
        </mxCell>
        <mxCell id="nn79CrIw1unvB5zp2tXt-3" value="&lt;&lt;abstract&gt;&gt;&#xa;Armadura" style="swimlane;fontStyle=0;align=center;verticalAlign=top;childLayout=stackLayout;horizontal=1;startSize=40;horizontalStack=0;resizeParent=1;resizeLast=0;collapsible=1;marginBottom=0;rounded=0;shadow=0;strokeWidth=1;fillColor=#fff2cc;strokeColor=#d6b656;" vertex="1" parent="1">
          <mxGeometry x="-1350" y="-3640" width="260" height="80" as="geometry">
            <mxRectangle x="110" y="-20" width="160" height="26" as="alternateBounds" />
          </mxGeometry>
        </mxCell>
        <mxCell id="nn79CrIw1unvB5zp2tXt-4" value="" style="line;html=1;strokeWidth=1;align=left;verticalAlign=middle;spacingTop=-1;spacingLeft=3;spacingRight=3;rotatable=0;labelPosition=right;points=[];portConstraint=eastwest;" vertex="1" parent="nn79CrIw1unvB5zp2tXt-3">
          <mxGeometry y="40" width="260" height="8" as="geometry" />
        </mxCell>
        <mxCell id="nn79CrIw1unvB5zp2tXt-5" value="+ &lt;&lt;abstract&gt;&gt;Â recibirAtaque( Integer danio )&#xa;" style="text;align=left;verticalAlign=top;spacingLeft=4;spacingRight=4;overflow=hidden;rotatable=0;points=[[0,0.5],[1,0.5]];portConstraint=eastwest;rounded=0;shadow=0;html=0;" vertex="1" parent="nn79CrIw1unvB5zp2tXt-3">
          <mxGeometry y="48" width="260" height="24" as="geometry" />
        </mxCell>
        <mxCell id="nn79CrIw1unvB5zp2tXt-6" value="PersonajeFactory" style="swimlane;fontStyle=0;align=center;verticalAlign=top;childLayout=stackLayout;horizontal=1;startSize=30;horizontalStack=0;resizeParent=1;resizeLast=0;collapsible=1;marginBottom=0;rounded=0;shadow=0;strokeWidth=1;fillColor=#fff2cc;strokeColor=#d6b656;" vertex="1" parent="1">
          <mxGeometry x="-440" y="-4360" width="280" height="80" as="geometry">
            <mxRectangle x="110" y="-20" width="160" height="26" as="alternateBounds" />
          </mxGeometry>
        </mxCell>
        <mxCell id="nn79CrIw1unvB5zp2tXt-7" value="" style="line;html=1;strokeWidth=1;align=left;verticalAlign=middle;spacingTop=-1;spacingLeft=3;spacingRight=3;rotatable=0;labelPosition=right;points=[];portConstraint=eastwest;" vertex="1" parent="nn79CrIw1unvB5zp2tXt-6">
          <mxGeometry y="30" width="280" height="8" as="geometry" />
        </mxCell>
        <mxCell id="nn79CrIw1unvB5zp2tXt-8" value="+ &lt;&lt;abstract&gt;&gt; crearPersonaje() : Personaje" style="text;align=left;verticalAlign=top;spacingLeft=4;spacingRight=4;overflow=hidden;rotatable=0;points=[[0,0.5],[1,0.5]];portConstraint=eastwest;rounded=0;shadow=0;html=0;" vertex="1" parent="nn79CrIw1unvB5zp2tXt-6">
          <mxGeometry y="38" width="280" height="24" as="geometry" />
        </mxCell>
        <mxCell id="nn79CrIw1unvB5zp2tXt-9" style="edgeStyle=orthogonalEdgeStyle;rounded=0;orthogonalLoop=1;jettySize=auto;html=1;endSize=12;startSize=12;endArrow=block;endFill=0;" edge="1" parent="1" source="nn79CrIw1unvB5zp2tXt-11" target="nn79CrIw1unvB5zp2tXt-6">
          <mxGeometry relative="1" as="geometry" />
        </mxCell>
        <mxCell id="nn79CrIw1unvB5zp2tXt-10" style="edgeStyle=orthogonalEdgeStyle;rounded=0;orthogonalLoop=1;jettySize=auto;html=1;endSize=12;startSize=12;dashed=1;dashPattern=8 8;" edge="1" parent="1" source="nn79CrIw1unvB5zp2tXt-11" target="nn79CrIw1unvB5zp2tXt-28">
          <mxGeometry relative="1" as="geometry" />
        </mxCell>
        <mxCell id="nn79CrIw1unvB5zp2tXt-11" value="ArqueroFactory" style="swimlane;fontStyle=0;align=center;verticalAlign=top;childLayout=stackLayout;horizontal=1;startSize=30;horizontalStack=0;resizeParent=1;resizeLast=0;collapsible=1;marginBottom=0;rounded=0;shadow=0;strokeWidth=1;fillColor=#fff2cc;strokeColor=#d6b656;" vertex="1" parent="1">
          <mxGeometry x="-400" y="-4120" width="200" height="80" as="geometry">
            <mxRectangle x="110" y="-20" width="160" height="26" as="alternateBounds" />
          </mxGeometry>
        </mxCell>
        <mxCell id="nn79CrIw1unvB5zp2tXt-12" value="" style="line;html=1;strokeWidth=1;align=left;verticalAlign=middle;spacingTop=-1;spacingLeft=3;spacingRight=3;rotatable=0;labelPosition=right;points=[];portConstraint=eastwest;" vertex="1" parent="nn79CrIw1unvB5zp2tXt-11">
          <mxGeometry y="30" width="200" height="8" as="geometry" />
        </mxCell>
        <mxCell id="nn79CrIw1unvB5zp2tXt-13" value="+ crearPersonaje() : Personaje" style="text;align=left;verticalAlign=top;spacingLeft=4;spacingRight=4;overflow=hidden;rotatable=0;points=[[0,0.5],[1,0.5]];portConstraint=eastwest;rounded=0;shadow=0;html=0;" vertex="1" parent="nn79CrIw1unvB5zp2tXt-11">
          <mxGeometry y="38" width="200" height="24" as="geometry" />
        </mxCell>
        <mxCell id="nn79CrIw1unvB5zp2tXt-14" value="&lt;b&gt;&lt;i&gt;&lt;font style=&quot;font-size: 16px;&quot;&gt;Creator&lt;/font&gt;&lt;/i&gt;&lt;/b&gt;" style="text;html=1;align=center;verticalAlign=middle;whiteSpace=wrap;rounded=0;fontSize=14;" vertex="1" parent="1">
          <mxGeometry x="-440" y="-4380" width="60" height="20" as="geometry" />
        </mxCell>
        <mxCell id="nn79CrIw1unvB5zp2tXt-15" value="&lt;b&gt;&lt;i&gt;Concrete Creator&lt;/i&gt;&lt;/b&gt;" style="text;html=1;align=center;verticalAlign=middle;whiteSpace=wrap;rounded=0;fontSize=14;" vertex="1" parent="1">
          <mxGeometry x="-400" y="-4155" width="80" height="35" as="geometry" />
        </mxCell>
        <mxCell id="nn79CrIw1unvB5zp2tXt-16" style="edgeStyle=orthogonalEdgeStyle;rounded=0;orthogonalLoop=1;jettySize=auto;html=1;endSize=12;startSize=12;endArrow=block;endFill=0;" edge="1" parent="1" source="nn79CrIw1unvB5zp2tXt-18" target="nn79CrIw1unvB5zp2tXt-6">
          <mxGeometry relative="1" as="geometry">
            <Array as="points">
              <mxPoint x="-540" y="-4200" />
              <mxPoint x="-300" y="-4200" />
            </Array>
          </mxGeometry>
        </mxCell>
        <mxCell id="nn79CrIw1unvB5zp2tXt-17" style="edgeStyle=orthogonalEdgeStyle;rounded=0;orthogonalLoop=1;jettySize=auto;html=1;endSize=12;startSize=12;dashed=1;dashPattern=8 8;" edge="1" parent="1" source="nn79CrIw1unvB5zp2tXt-18" target="nn79CrIw1unvB5zp2tXt-28">
          <mxGeometry relative="1" as="geometry">
            <Array as="points">
              <mxPoint x="-540" y="-3960" />
              <mxPoint x="-300" y="-3960" />
            </Array>
          </mxGeometry>
        </mxCell>
        <mxCell id="nn79CrIw1unvB5zp2tXt-18" value="GuerreroFactory" style="swimlane;fontStyle=0;align=center;verticalAlign=top;childLayout=stackLayout;horizontal=1;startSize=30;horizontalStack=0;resizeParent=1;resizeLast=0;collapsible=1;marginBottom=0;rounded=0;shadow=0;strokeWidth=1;fillColor=#fff2cc;strokeColor=#d6b656;" vertex="1" parent="1">
          <mxGeometry x="-640" y="-4120" width="200" height="80" as="geometry">
            <mxRectangle x="110" y="-20" width="160" height="26" as="alternateBounds" />
          </mxGeometry>
        </mxCell>
        <mxCell id="nn79CrIw1unvB5zp2tXt-19" value="" style="line;html=1;strokeWidth=1;align=left;verticalAlign=middle;spacingTop=-1;spacingLeft=3;spacingRight=3;rotatable=0;labelPosition=right;points=[];portConstraint=eastwest;" vertex="1" parent="nn79CrIw1unvB5zp2tXt-18">
          <mxGeometry y="30" width="200" height="8" as="geometry" />
        </mxCell>
        <mxCell id="nn79CrIw1unvB5zp2tXt-20" value="+ crearPersonaje() : Personaje" style="text;align=left;verticalAlign=top;spacingLeft=4;spacingRight=4;overflow=hidden;rotatable=0;points=[[0,0.5],[1,0.5]];portConstraint=eastwest;rounded=0;shadow=0;html=0;" vertex="1" parent="nn79CrIw1unvB5zp2tXt-18">
          <mxGeometry y="38" width="200" height="24" as="geometry" />
        </mxCell>
        <mxCell id="nn79CrIw1unvB5zp2tXt-21" style="edgeStyle=orthogonalEdgeStyle;rounded=0;orthogonalLoop=1;jettySize=auto;html=1;endSize=12;startSize=12;endArrow=block;endFill=0;" edge="1" parent="1" source="nn79CrIw1unvB5zp2tXt-23" target="nn79CrIw1unvB5zp2tXt-6">
          <mxGeometry relative="1" as="geometry">
            <Array as="points">
              <mxPoint x="-60" y="-4200" />
              <mxPoint x="-300" y="-4200" />
            </Array>
          </mxGeometry>
        </mxCell>
        <mxCell id="nn79CrIw1unvB5zp2tXt-22" style="edgeStyle=orthogonalEdgeStyle;rounded=0;orthogonalLoop=1;jettySize=auto;html=1;endSize=12;startSize=12;dashed=1;dashPattern=8 8;" edge="1" parent="1" source="nn79CrIw1unvB5zp2tXt-23" target="nn79CrIw1unvB5zp2tXt-28">
          <mxGeometry relative="1" as="geometry">
            <Array as="points">
              <mxPoint x="-60" y="-3960" />
              <mxPoint x="-300" y="-3960" />
            </Array>
          </mxGeometry>
        </mxCell>
        <mxCell id="nn79CrIw1unvB5zp2tXt-23" value="MagoFactory" style="swimlane;fontStyle=0;align=center;verticalAlign=top;childLayout=stackLayout;horizontal=1;startSize=30;horizontalStack=0;resizeParent=1;resizeLast=0;collapsible=1;marginBottom=0;rounded=0;shadow=0;strokeWidth=1;fillColor=#fff2cc;strokeColor=#d6b656;" vertex="1" parent="1">
          <mxGeometry x="-160" y="-4120" width="200" height="80" as="geometry">
            <mxRectangle x="110" y="-20" width="160" height="26" as="alternateBounds" />
          </mxGeometry>
        </mxCell>
        <mxCell id="nn79CrIw1unvB5zp2tXt-24" value="" style="line;html=1;strokeWidth=1;align=left;verticalAlign=middle;spacingTop=-1;spacingLeft=3;spacingRight=3;rotatable=0;labelPosition=right;points=[];portConstraint=eastwest;" vertex="1" parent="nn79CrIw1unvB5zp2tXt-23">
          <mxGeometry y="30" width="200" height="8" as="geometry" />
        </mxCell>
        <mxCell id="nn79CrIw1unvB5zp2tXt-25" value="+ crearPersonaje() : Personaje" style="text;align=left;verticalAlign=top;spacingLeft=4;spacingRight=4;overflow=hidden;rotatable=0;points=[[0,0.5],[1,0.5]];portConstraint=eastwest;rounded=0;shadow=0;html=0;" vertex="1" parent="nn79CrIw1unvB5zp2tXt-23">
          <mxGeometry y="38" width="200" height="24" as="geometry" />
        </mxCell>
        <mxCell id="nn79CrIw1unvB5zp2tXt-26" value="&lt;b&gt;&lt;i&gt;Concrete Creator&lt;/i&gt;&lt;/b&gt;" style="text;html=1;align=center;verticalAlign=middle;whiteSpace=wrap;rounded=0;fontSize=14;" vertex="1" parent="1">
          <mxGeometry x="-640" y="-4155" width="80" height="35" as="geometry" />
        </mxCell>
        <mxCell id="nn79CrIw1unvB5zp2tXt-27" value="&lt;b&gt;&lt;i&gt;Concrete Creator&lt;/i&gt;&lt;/b&gt;" style="text;html=1;align=center;verticalAlign=middle;whiteSpace=wrap;rounded=0;fontSize=14;" vertex="1" parent="1">
          <mxGeometry x="-160" y="-4155" width="80" height="35" as="geometry" />
        </mxCell>
        <mxCell id="nn79CrIw1unvB5zp2tXt-28" value="Personaje" style="swimlane;fontStyle=0;align=center;verticalAlign=top;childLayout=stackLayout;horizontal=1;startSize=30;horizontalStack=0;resizeParent=1;resizeLast=0;collapsible=1;marginBottom=0;rounded=0;shadow=0;strokeWidth=1;fillColor=#fff2cc;strokeColor=#d6b656;" vertex="1" parent="1">
          <mxGeometry x="-420" y="-3870" width="240" height="130" as="geometry">
            <mxRectangle x="110" y="-20" width="160" height="26" as="alternateBounds" />
          </mxGeometry>
        </mxCell>
        <mxCell id="nn79CrIw1unvB5zp2tXt-29" value="- vida : Integer" style="text;align=left;verticalAlign=top;spacingLeft=4;spacingRight=4;overflow=hidden;rotatable=0;points=[[0,0.5],[1,0.5]];portConstraint=eastwest;rounded=0;shadow=0;html=0;" vertex="1" parent="nn79CrIw1unvB5zp2tXt-28">
          <mxGeometry y="30" width="240" height="24" as="geometry" />
        </mxCell>
        <mxCell id="nn79CrIw1unvB5zp2tXt-30" value="" style="line;html=1;strokeWidth=1;align=left;verticalAlign=middle;spacingTop=-1;spacingLeft=3;spacingRight=3;rotatable=0;labelPosition=right;points=[];portConstraint=eastwest;" vertex="1" parent="nn79CrIw1unvB5zp2tXt-28">
          <mxGeometry y="54" width="240" height="8" as="geometry" />
        </mxCell>
        <mxCell id="nn79CrIw1unvB5zp2tXt-31" value="+Â atacar( Personaje enemigo )&#xa;" style="text;align=left;verticalAlign=top;spacingLeft=4;spacingRight=4;overflow=hidden;rotatable=0;points=[[0,0.5],[1,0.5]];portConstraint=eastwest;rounded=0;shadow=0;html=0;" vertex="1" parent="nn79CrIw1unvB5zp2tXt-28">
          <mxGeometry y="62" width="240" height="24" as="geometry" />
        </mxCell>
        <mxCell id="nn79CrIw1unvB5zp2tXt-32" value="+Â recibirAtaque( int danio )" style="text;align=left;verticalAlign=top;spacingLeft=4;spacingRight=4;overflow=hidden;rotatable=0;points=[[0,0.5],[1,0.5]];portConstraint=eastwest;rounded=0;shadow=0;html=0;" vertex="1" parent="nn79CrIw1unvB5zp2tXt-28">
          <mxGeometry y="86" width="240" height="24" as="geometry" />
        </mxCell>
        <mxCell id="nn79CrIw1unvB5zp2tXt-33" value="&lt;b&gt;&lt;i&gt;Concrete Product&lt;/i&gt;&lt;/b&gt;" style="text;html=1;align=center;verticalAlign=middle;whiteSpace=wrap;rounded=0;fontSize=14;" vertex="1" parent="1">
          <mxGeometry x="-420" y="-3910" width="80" height="40" as="geometry" />
        </mxCell>
        <mxCell id="nn79CrIw1unvB5zp2tXt-34" style="edgeStyle=orthogonalEdgeStyle;rounded=0;orthogonalLoop=1;jettySize=auto;html=1;endSize=12;startSize=12;endArrow=block;endFill=0;" edge="1" parent="1" source="nn79CrIw1unvB5zp2tXt-35">
          <mxGeometry relative="1" as="geometry">
            <mxPoint x="-1220" y="-3560" as="targetPoint" />
            <Array as="points">
              <mxPoint x="-1440" y="-3520" />
              <mxPoint x="-1220" y="-3520" />
            </Array>
          </mxGeometry>
        </mxCell>
        <mxCell id="nn79CrIw1unvB5zp2tXt-35" value="ArmaduraDeCuero" style="swimlane;fontStyle=0;align=center;verticalAlign=top;childLayout=stackLayout;horizontal=1;startSize=30;horizontalStack=0;resizeParent=1;resizeLast=0;collapsible=1;marginBottom=0;rounded=0;shadow=0;strokeWidth=1;fillColor=#fff2cc;strokeColor=#d6b656;" vertex="1" parent="1">
          <mxGeometry x="-1530" y="-3480" width="180" height="80" as="geometry">
            <mxRectangle x="110" y="-20" width="160" height="26" as="alternateBounds" />
          </mxGeometry>
        </mxCell>
        <mxCell id="nn79CrIw1unvB5zp2tXt-36" value="" style="line;html=1;strokeWidth=1;align=left;verticalAlign=middle;spacingTop=-1;spacingLeft=3;spacingRight=3;rotatable=0;labelPosition=right;points=[];portConstraint=eastwest;" vertex="1" parent="nn79CrIw1unvB5zp2tXt-35">
          <mxGeometry y="30" width="180" height="8" as="geometry" />
        </mxCell>
        <mxCell id="nn79CrIw1unvB5zp2tXt-37" value="+ recibirAtaque( Integer danio )" style="text;align=left;verticalAlign=top;spacingLeft=4;spacingRight=4;overflow=hidden;rotatable=0;points=[[0,0.5],[1,0.5]];portConstraint=eastwest;rounded=0;shadow=0;html=0;" vertex="1" parent="nn79CrIw1unvB5zp2tXt-35">
          <mxGeometry y="38" width="180" height="24" as="geometry" />
        </mxCell>
        <mxCell id="nn79CrIw1unvB5zp2tXt-38" style="edgeStyle=orthogonalEdgeStyle;rounded=0;orthogonalLoop=1;jettySize=auto;html=1;endSize=12;startSize=12;endArrow=block;endFill=0;" edge="1" parent="1" source="nn79CrIw1unvB5zp2tXt-39">
          <mxGeometry relative="1" as="geometry">
            <mxPoint x="-1220" y="-3560" as="targetPoint" />
          </mxGeometry>
        </mxCell>
        <mxCell id="nn79CrIw1unvB5zp2tXt-39" value="ArmaduraDeHierro" style="swimlane;fontStyle=0;align=center;verticalAlign=top;childLayout=stackLayout;horizontal=1;startSize=30;horizontalStack=0;resizeParent=1;resizeLast=0;collapsible=1;marginBottom=0;rounded=0;shadow=0;strokeWidth=1;fillColor=#fff2cc;strokeColor=#d6b656;" vertex="1" parent="1">
          <mxGeometry x="-1310" y="-3480" width="180" height="80" as="geometry">
            <mxRectangle x="110" y="-20" width="160" height="26" as="alternateBounds" />
          </mxGeometry>
        </mxCell>
        <mxCell id="nn79CrIw1unvB5zp2tXt-40" value="" style="line;html=1;strokeWidth=1;align=left;verticalAlign=middle;spacingTop=-1;spacingLeft=3;spacingRight=3;rotatable=0;labelPosition=right;points=[];portConstraint=eastwest;" vertex="1" parent="nn79CrIw1unvB5zp2tXt-39">
          <mxGeometry y="30" width="180" height="8" as="geometry" />
        </mxCell>
        <mxCell id="nn79CrIw1unvB5zp2tXt-41" value="+ recibirAtaque( Integer danio )" style="text;align=left;verticalAlign=top;spacingLeft=4;spacingRight=4;overflow=hidden;rotatable=0;points=[[0,0.5],[1,0.5]];portConstraint=eastwest;rounded=0;shadow=0;html=0;" vertex="1" parent="nn79CrIw1unvB5zp2tXt-39">
          <mxGeometry y="38" width="180" height="24" as="geometry" />
        </mxCell>
        <mxCell id="nn79CrIw1unvB5zp2tXt-42" style="edgeStyle=orthogonalEdgeStyle;rounded=0;orthogonalLoop=1;jettySize=auto;html=1;endSize=12;startSize=12;endArrow=block;endFill=0;" edge="1" parent="1" source="nn79CrIw1unvB5zp2tXt-43">
          <mxGeometry relative="1" as="geometry">
            <mxPoint x="-1220" y="-3560" as="targetPoint" />
            <Array as="points">
              <mxPoint x="-1000" y="-3520" />
              <mxPoint x="-1220" y="-3520" />
            </Array>
          </mxGeometry>
        </mxCell>
        <mxCell id="nn79CrIw1unvB5zp2tXt-43" value="ArmaduraDeAcero" style="swimlane;fontStyle=0;align=center;verticalAlign=top;childLayout=stackLayout;horizontal=1;startSize=30;horizontalStack=0;resizeParent=1;resizeLast=0;collapsible=1;marginBottom=0;rounded=0;shadow=0;strokeWidth=1;fillColor=#fff2cc;strokeColor=#d6b656;" vertex="1" parent="1">
          <mxGeometry x="-1090" y="-3480" width="180" height="80" as="geometry">
            <mxRectangle x="110" y="-20" width="160" height="26" as="alternateBounds" />
          </mxGeometry>
        </mxCell>
        <mxCell id="nn79CrIw1unvB5zp2tXt-44" value="" style="line;html=1;strokeWidth=1;align=left;verticalAlign=middle;spacingTop=-1;spacingLeft=3;spacingRight=3;rotatable=0;labelPosition=right;points=[];portConstraint=eastwest;" vertex="1" parent="nn79CrIw1unvB5zp2tXt-43">
          <mxGeometry y="30" width="180" height="8" as="geometry" />
        </mxCell>
        <mxCell id="nn79CrIw1unvB5zp2tXt-45" value="+ recibirAtaque( Integer danio )" style="text;align=left;verticalAlign=top;spacingLeft=4;spacingRight=4;overflow=hidden;rotatable=0;points=[[0,0.5],[1,0.5]];portConstraint=eastwest;rounded=0;shadow=0;html=0;" vertex="1" parent="nn79CrIw1unvB5zp2tXt-43">
          <mxGeometry y="38" width="180" height="24" as="geometry" />
        </mxCell>
        <mxCell id="nn79CrIw1unvB5zp2tXt-46" style="edgeStyle=orthogonalEdgeStyle;rounded=0;orthogonalLoop=1;jettySize=auto;html=1;" edge="1" parent="1" source="nn79CrIw1unvB5zp2tXt-47" target="nn79CrIw1unvB5zp2tXt-28">
          <mxGeometry relative="1" as="geometry" />
        </mxCell>
        <mxCell id="nn79CrIw1unvB5zp2tXt-47" value="&lt;&lt;abstract&gt;&gt;&#xa;Arma" style="swimlane;fontStyle=0;align=center;verticalAlign=top;childLayout=stackLayout;horizontal=1;startSize=40;horizontalStack=0;resizeParent=1;resizeLast=0;collapsible=1;marginBottom=0;rounded=0;shadow=0;strokeWidth=1;fillColor=#fff2cc;strokeColor=#d6b656;" vertex="1" parent="1">
          <mxGeometry x="-460" y="-3640" width="320" height="80" as="geometry">
            <mxRectangle x="110" y="-20" width="160" height="26" as="alternateBounds" />
          </mxGeometry>
        </mxCell>
        <mxCell id="nn79CrIw1unvB5zp2tXt-48" value="" style="line;html=1;strokeWidth=1;align=left;verticalAlign=middle;spacingTop=-1;spacingLeft=3;spacingRight=3;rotatable=0;labelPosition=right;points=[];portConstraint=eastwest;" vertex="1" parent="nn79CrIw1unvB5zp2tXt-47">
          <mxGeometry y="40" width="320" height="8" as="geometry" />
        </mxCell>
        <mxCell id="nn79CrIw1unvB5zp2tXt-49" value="+ &lt;&lt;abstract&gt;&gt; golpear( Armadura armadura ) : Integer" style="text;align=left;verticalAlign=top;spacingLeft=4;spacingRight=4;overflow=hidden;rotatable=0;points=[[0,0.5],[1,0.5]];portConstraint=eastwest;rounded=0;shadow=0;html=0;" vertex="1" parent="nn79CrIw1unvB5zp2tXt-47">
          <mxGeometry y="48" width="320" height="24" as="geometry" />
        </mxCell>
        <mxCell id="nn79CrIw1unvB5zp2tXt-50" style="edgeStyle=orthogonalEdgeStyle;rounded=0;orthogonalLoop=1;jettySize=auto;html=1;endSize=12;startSize=12;endArrow=block;endFill=0;" edge="1" parent="1" source="nn79CrIw1unvB5zp2tXt-51" target="nn79CrIw1unvB5zp2tXt-47">
          <mxGeometry relative="1" as="geometry">
            <Array as="points">
              <mxPoint x="-720" y="-3520" />
              <mxPoint x="-300" y="-3520" />
            </Array>
          </mxGeometry>
        </mxCell>
        <mxCell id="nn79CrIw1unvB5zp2tXt-51" value="Espada" style="swimlane;fontStyle=0;align=center;verticalAlign=top;childLayout=stackLayout;horizontal=1;startSize=30;horizontalStack=0;resizeParent=1;resizeLast=0;collapsible=1;marginBottom=0;rounded=0;shadow=0;strokeWidth=1;fillColor=#fff2cc;strokeColor=#d6b656;" vertex="1" parent="1">
          <mxGeometry x="-840" y="-3480" width="240" height="80" as="geometry">
            <mxRectangle x="110" y="-20" width="160" height="26" as="alternateBounds" />
          </mxGeometry>
        </mxCell>
        <mxCell id="nn79CrIw1unvB5zp2tXt-52" value="" style="line;html=1;strokeWidth=1;align=left;verticalAlign=middle;spacingTop=-1;spacingLeft=3;spacingRight=3;rotatable=0;labelPosition=right;points=[];portConstraint=eastwest;" vertex="1" parent="nn79CrIw1unvB5zp2tXt-51">
          <mxGeometry y="30" width="240" height="8" as="geometry" />
        </mxCell>
        <mxCell id="nn79CrIw1unvB5zp2tXt-53" value="+Â golpear( Armadura armadura ) : Integer" style="text;align=left;verticalAlign=top;spacingLeft=4;spacingRight=4;overflow=hidden;rotatable=0;points=[[0,0.5],[1,0.5]];portConstraint=eastwest;rounded=0;shadow=0;html=0;" vertex="1" parent="nn79CrIw1unvB5zp2tXt-51">
          <mxGeometry y="38" width="240" height="24" as="geometry" />
        </mxCell>
        <mxCell id="nn79CrIw1unvB5zp2tXt-54" style="edgeStyle=orthogonalEdgeStyle;rounded=0;orthogonalLoop=1;jettySize=auto;html=1;endSize=12;startSize=12;endArrow=block;endFill=0;" edge="1" parent="1" source="nn79CrIw1unvB5zp2tXt-55" target="nn79CrIw1unvB5zp2tXt-47">
          <mxGeometry relative="1" as="geometry" />
        </mxCell>
        <mxCell id="nn79CrIw1unvB5zp2tXt-55" value="Arco" style="swimlane;fontStyle=0;align=center;verticalAlign=top;childLayout=stackLayout;horizontal=1;startSize=30;horizontalStack=0;resizeParent=1;resizeLast=0;collapsible=1;marginBottom=0;rounded=0;shadow=0;strokeWidth=1;fillColor=#fff2cc;strokeColor=#d6b656;" vertex="1" parent="1">
          <mxGeometry x="-560" y="-3480" width="240" height="80" as="geometry">
            <mxRectangle x="110" y="-20" width="160" height="26" as="alternateBounds" />
          </mxGeometry>
        </mxCell>
        <mxCell id="nn79CrIw1unvB5zp2tXt-56" value="" style="line;html=1;strokeWidth=1;align=left;verticalAlign=middle;spacingTop=-1;spacingLeft=3;spacingRight=3;rotatable=0;labelPosition=right;points=[];portConstraint=eastwest;" vertex="1" parent="nn79CrIw1unvB5zp2tXt-55">
          <mxGeometry y="30" width="240" height="8" as="geometry" />
        </mxCell>
        <mxCell id="nn79CrIw1unvB5zp2tXt-57" value="+Â golpear( Armadura armadura ) : Integer" style="text;align=left;verticalAlign=top;spacingLeft=4;spacingRight=4;overflow=hidden;rotatable=0;points=[[0,0.5],[1,0.5]];portConstraint=eastwest;rounded=0;shadow=0;html=0;" vertex="1" parent="nn79CrIw1unvB5zp2tXt-55">
          <mxGeometry y="38" width="240" height="24" as="geometry" />
        </mxCell>
        <mxCell id="nn79CrIw1unvB5zp2tXt-58" style="edgeStyle=orthogonalEdgeStyle;rounded=0;orthogonalLoop=1;jettySize=auto;html=1;endSize=12;startSize=12;endArrow=block;endFill=0;" edge="1" parent="1" source="nn79CrIw1unvB5zp2tXt-59" target="nn79CrIw1unvB5zp2tXt-47">
          <mxGeometry relative="1" as="geometry">
            <Array as="points">
              <mxPoint x="-160" y="-3520" />
              <mxPoint x="-300" y="-3520" />
            </Array>
          </mxGeometry>
        </mxCell>
        <mxCell id="nn79CrIw1unvB5zp2tXt-59" value="Baston" style="swimlane;fontStyle=0;align=center;verticalAlign=top;childLayout=stackLayout;horizontal=1;startSize=30;horizontalStack=0;resizeParent=1;resizeLast=0;collapsible=1;marginBottom=0;rounded=0;shadow=0;strokeWidth=1;fillColor=#fff2cc;strokeColor=#d6b656;" vertex="1" parent="1">
          <mxGeometry x="-280" y="-3480" width="240" height="80" as="geometry">
            <mxRectangle x="110" y="-20" width="160" height="26" as="alternateBounds" />
          </mxGeometry>
        </mxCell>
        <mxCell id="nn79CrIw1unvB5zp2tXt-60" value="" style="line;html=1;strokeWidth=1;align=left;verticalAlign=middle;spacingTop=-1;spacingLeft=3;spacingRight=3;rotatable=0;labelPosition=right;points=[];portConstraint=eastwest;" vertex="1" parent="nn79CrIw1unvB5zp2tXt-59">
          <mxGeometry y="30" width="240" height="8" as="geometry" />
        </mxCell>
        <mxCell id="nn79CrIw1unvB5zp2tXt-61" value="+Â golpear( Armadura armadura ) : Integer" style="text;align=left;verticalAlign=top;spacingLeft=4;spacingRight=4;overflow=hidden;rotatable=0;points=[[0,0.5],[1,0.5]];portConstraint=eastwest;rounded=0;shadow=0;html=0;" vertex="1" parent="nn79CrIw1unvB5zp2tXt-59">
          <mxGeometry y="38" width="240" height="24" as="geometry" />
        </mxCell>
        <mxCell id="nn79CrIw1unvB5zp2tXt-62" style="edgeStyle=orthogonalEdgeStyle;rounded=0;orthogonalLoop=1;jettySize=auto;html=1;" edge="1" parent="1" source="nn79CrIw1unvB5zp2tXt-63" target="nn79CrIw1unvB5zp2tXt-28">
          <mxGeometry relative="1" as="geometry">
            <Array as="points">
              <mxPoint x="800" y="-3680" />
              <mxPoint x="-300" y="-3680" />
            </Array>
          </mxGeometry>
        </mxCell>
        <mxCell id="nn79CrIw1unvB5zp2tXt-63" value="&lt;&lt;interface&gt;&gt;&#xa;Habilidad" style="swimlane;fontStyle=0;align=center;verticalAlign=top;childLayout=stackLayout;horizontal=1;startSize=40;horizontalStack=0;resizeParent=1;resizeLast=0;collapsible=1;marginBottom=0;rounded=0;shadow=0;strokeWidth=1;fillColor=#fff2cc;strokeColor=#d6b656;" vertex="1" parent="1">
          <mxGeometry x="720" y="-3650" width="160" height="90" as="geometry">
            <mxRectangle x="110" y="-20" width="160" height="26" as="alternateBounds" />
          </mxGeometry>
        </mxCell>
        <mxCell id="nn79CrIw1unvB5zp2tXt-64" value="" style="line;html=1;strokeWidth=1;align=left;verticalAlign=middle;spacingTop=-1;spacingLeft=3;spacingRight=3;rotatable=0;labelPosition=right;points=[];portConstraint=eastwest;" vertex="1" parent="nn79CrIw1unvB5zp2tXt-63">
          <mxGeometry y="40" width="160" height="8" as="geometry" />
        </mxCell>
        <mxCell id="nn79CrIw1unvB5zp2tXt-65" style="edgeStyle=orthogonalEdgeStyle;rounded=0;orthogonalLoop=1;jettySize=auto;html=1;endSize=12;startSize=12;endArrow=block;endFill=0;" edge="1" parent="1" source="nn79CrIw1unvB5zp2tXt-66" target="nn79CrIw1unvB5zp2tXt-63">
          <mxGeometry relative="1" as="geometry">
            <Array as="points">
              <mxPoint x="400" y="-3520" />
              <mxPoint x="800" y="-3520" />
            </Array>
          </mxGeometry>
        </mxCell>
        <mxCell id="nn79CrIw1unvB5zp2tXt-66" value="CuerpoACuerpo" style="swimlane;fontStyle=0;align=center;verticalAlign=top;childLayout=stackLayout;horizontal=1;startSize=40;horizontalStack=0;resizeParent=1;resizeLast=0;collapsible=1;marginBottom=0;rounded=0;shadow=0;strokeWidth=1;fillColor=#fff2cc;strokeColor=#d6b656;" vertex="1" parent="1">
          <mxGeometry x="320" y="-3480" width="160" height="80" as="geometry">
            <mxRectangle x="110" y="-20" width="160" height="26" as="alternateBounds" />
          </mxGeometry>
        </mxCell>
        <mxCell id="nn79CrIw1unvB5zp2tXt-67" value="" style="line;html=1;strokeWidth=1;align=left;verticalAlign=middle;spacingTop=-1;spacingLeft=3;spacingRight=3;rotatable=0;labelPosition=right;points=[];portConstraint=eastwest;" vertex="1" parent="nn79CrIw1unvB5zp2tXt-66">
          <mxGeometry y="40" width="160" height="8" as="geometry" />
        </mxCell>
        <mxCell id="nn79CrIw1unvB5zp2tXt-68" style="edgeStyle=orthogonalEdgeStyle;rounded=0;orthogonalLoop=1;jettySize=auto;html=1;endSize=12;startSize=12;endArrow=block;endFill=0;" edge="1" parent="1" source="nn79CrIw1unvB5zp2tXt-69" target="nn79CrIw1unvB5zp2tXt-63">
          <mxGeometry relative="1" as="geometry">
            <Array as="points">
              <mxPoint x="600" y="-3520" />
              <mxPoint x="800" y="-3520" />
            </Array>
          </mxGeometry>
        </mxCell>
        <mxCell id="nn79CrIw1unvB5zp2tXt-69" value="Distancia" style="swimlane;fontStyle=0;align=center;verticalAlign=top;childLayout=stackLayout;horizontal=1;startSize=40;horizontalStack=0;resizeParent=1;resizeLast=0;collapsible=1;marginBottom=0;rounded=0;shadow=0;strokeWidth=1;fillColor=#fff2cc;strokeColor=#d6b656;" vertex="1" parent="1">
          <mxGeometry x="520" y="-3480" width="160" height="80" as="geometry">
            <mxRectangle x="110" y="-20" width="160" height="26" as="alternateBounds" />
          </mxGeometry>
        </mxCell>
        <mxCell id="nn79CrIw1unvB5zp2tXt-70" value="" style="line;html=1;strokeWidth=1;align=left;verticalAlign=middle;spacingTop=-1;spacingLeft=3;spacingRight=3;rotatable=0;labelPosition=right;points=[];portConstraint=eastwest;" vertex="1" parent="nn79CrIw1unvB5zp2tXt-69">
          <mxGeometry y="40" width="160" height="8" as="geometry" />
        </mxCell>
        <mxCell id="nn79CrIw1unvB5zp2tXt-71" style="edgeStyle=orthogonalEdgeStyle;rounded=0;orthogonalLoop=1;jettySize=auto;html=1;endSize=12;startSize=12;endArrow=block;endFill=0;" edge="1" parent="1" source="nn79CrIw1unvB5zp2tXt-72" target="nn79CrIw1unvB5zp2tXt-63">
          <mxGeometry relative="1" as="geometry">
            <Array as="points">
              <mxPoint x="800" y="-3530" />
              <mxPoint x="800" y="-3530" />
            </Array>
          </mxGeometry>
        </mxCell>
        <mxCell id="nn79CrIw1unvB5zp2tXt-72" value="Curacion" style="swimlane;fontStyle=0;align=center;verticalAlign=top;childLayout=stackLayout;horizontal=1;startSize=40;horizontalStack=0;resizeParent=1;resizeLast=0;collapsible=1;marginBottom=0;rounded=0;shadow=0;strokeWidth=1;fillColor=#fff2cc;strokeColor=#d6b656;" vertex="1" parent="1">
          <mxGeometry x="720" y="-3480" width="160" height="80" as="geometry">
            <mxRectangle x="110" y="-20" width="160" height="26" as="alternateBounds" />
          </mxGeometry>
        </mxCell>
        <mxCell id="nn79CrIw1unvB5zp2tXt-73" value="" style="line;html=1;strokeWidth=1;align=left;verticalAlign=middle;spacingTop=-1;spacingLeft=3;spacingRight=3;rotatable=0;labelPosition=right;points=[];portConstraint=eastwest;" vertex="1" parent="nn79CrIw1unvB5zp2tXt-72">
          <mxGeometry y="40" width="160" height="8" as="geometry" />
        </mxCell>
        <mxCell id="nn79CrIw1unvB5zp2tXt-74" style="edgeStyle=orthogonalEdgeStyle;rounded=0;orthogonalLoop=1;jettySize=auto;html=1;endSize=12;startSize=12;endArrow=block;endFill=0;" edge="1" parent="1" source="nn79CrIw1unvB5zp2tXt-75" target="nn79CrIw1unvB5zp2tXt-63">
          <mxGeometry relative="1" as="geometry">
            <Array as="points">
              <mxPoint x="1000" y="-3520" />
              <mxPoint x="800" y="-3520" />
            </Array>
          </mxGeometry>
        </mxCell>
        <mxCell id="nn79CrIw1unvB5zp2tXt-75" value="Magia" style="swimlane;fontStyle=0;align=center;verticalAlign=top;childLayout=stackLayout;horizontal=1;startSize=40;horizontalStack=0;resizeParent=1;resizeLast=0;collapsible=1;marginBottom=0;rounded=0;shadow=0;strokeWidth=1;fillColor=#fff2cc;strokeColor=#d6b656;" vertex="1" parent="1">
          <mxGeometry x="920" y="-3480" width="160" height="80" as="geometry">
            <mxRectangle x="110" y="-20" width="160" height="26" as="alternateBounds" />
          </mxGeometry>
        </mxCell>
        <mxCell id="nn79CrIw1unvB5zp2tXt-76" value="" style="line;html=1;strokeWidth=1;align=left;verticalAlign=middle;spacingTop=-1;spacingLeft=3;spacingRight=3;rotatable=0;labelPosition=right;points=[];portConstraint=eastwest;" vertex="1" parent="nn79CrIw1unvB5zp2tXt-75">
          <mxGeometry y="40" width="160" height="8" as="geometry" />
        </mxCell>
        <mxCell id="nn79CrIw1unvB5zp2tXt-77" value="&lt;b style=&quot;&quot;&gt;&lt;i&gt;&lt;font style=&quot;font-size: 20px;&quot;&gt;Patron Factory Method&lt;/font&gt;&lt;/i&gt;&lt;/b&gt;" style="text;html=1;align=center;verticalAlign=middle;resizable=0;points=[];autosize=1;strokeColor=none;fillColor=none;" vertex="1" parent="1">
          <mxGeometry x="-1560" y="-4440" width="240" height="40" as="geometry" />
        </mxCell>
        <mxCell id="nn79CrIw1unvB5zp2tXt-80" style="edgeStyle=orthogonalEdgeStyle;rounded=0;orthogonalLoop=1;jettySize=auto;html=1;endSize=12;startSize=12;endArrow=block;endFill=0;" edge="1" parent="1" source="nn79CrIw1unvB5zp2tXt-78" target="nn79CrIw1unvB5zp2tXt-63">
          <mxGeometry relative="1" as="geometry">
            <Array as="points">
              <mxPoint x="1200" y="-3520" />
              <mxPoint x="800" y="-3520" />
            </Array>
          </mxGeometry>
        </mxCell>
        <mxCell id="nn79CrIw1unvB5zp2tXt-78" value="LanzarRayos" style="swimlane;fontStyle=0;align=center;verticalAlign=top;childLayout=stackLayout;horizontal=1;startSize=40;horizontalStack=0;resizeParent=1;resizeLast=0;collapsible=1;marginBottom=0;rounded=0;shadow=0;strokeWidth=1;fillColor=#fff2cc;strokeColor=#d6b656;" vertex="1" parent="1">
          <mxGeometry x="1120" y="-3480" width="160" height="80" as="geometry">
            <mxRectangle x="110" y="-20" width="160" height="26" as="alternateBounds" />
          </mxGeometry>
        </mxCell>
        <mxCell id="nn79CrIw1unvB5zp2tXt-79" value="" style="line;html=1;strokeWidth=1;align=left;verticalAlign=middle;spacingTop=-1;spacingLeft=3;spacingRight=3;rotatable=0;labelPosition=right;points=[];portConstraint=eastwest;" vertex="1" parent="nn79CrIw1unvB5zp2tXt-78">
          <mxGeometry y="40" width="160" height="8" as="geometry" />
        </mxCell>
        <mxCell id="nn79CrIw1unvB5zp2tXt-91" style="edgeStyle=orthogonalEdgeStyle;rounded=0;orthogonalLoop=1;jettySize=auto;html=1;startSize=12;endSize=12;endArrow=block;endFill=0;" edge="1" parent="1" source="nn79CrIw1unvB5zp2tXt-88" target="nn79CrIw1unvB5zp2tXt-47">
          <mxGeometry relative="1" as="geometry">
            <Array as="points">
              <mxPoint x="120" y="-3520" />
              <mxPoint x="-300" y="-3520" />
            </Array>
          </mxGeometry>
        </mxCell>
        <mxCell id="nn79CrIw1unvB5zp2tXt-88" value="Baston" style="swimlane;fontStyle=0;align=center;verticalAlign=top;childLayout=stackLayout;horizontal=1;startSize=30;horizontalStack=0;resizeParent=1;resizeLast=0;collapsible=1;marginBottom=0;rounded=0;shadow=0;strokeWidth=1;fillColor=#fff2cc;strokeColor=#d6b656;" vertex="1" parent="1">
          <mxGeometry y="-3480" width="240" height="80" as="geometry">
            <mxRectangle x="110" y="-20" width="160" height="26" as="alternateBounds" />
          </mxGeometry>
        </mxCell>
        <mxCell id="nn79CrIw1unvB5zp2tXt-89" value="" style="line;html=1;strokeWidth=1;align=left;verticalAlign=middle;spacingTop=-1;spacingLeft=3;spacingRight=3;rotatable=0;labelPosition=right;points=[];portConstraint=eastwest;" vertex="1" parent="nn79CrIw1unvB5zp2tXt-88">
          <mxGeometry y="30" width="240" height="8" as="geometry" />
        </mxCell>
        <mxCell id="nn79CrIw1unvB5zp2tXt-90" value="+Â golpear( Armadura armadura ) : Integer" style="text;align=left;verticalAlign=top;spacingLeft=4;spacingRight=4;overflow=hidden;rotatable=0;points=[[0,0.5],[1,0.5]];portConstraint=eastwest;rounded=0;shadow=0;html=0;" vertex="1" parent="nn79CrIw1unvB5zp2tXt-88">
          <mxGeometry y="38" width="240" height="24" as="geometry" />
        </mxCell>
      </root>
    </mxGraphModel>
  </diagram>
</mxfile>
